<svg width="87" height="15" viewBox="0 0 87 15" fill="none" xmlns="http://www.w3.org/2000/svg">
<path d="M11.1991 8.95006C11.0372 9.10694 10.9628 9.33381 10.9997 9.55631L11.5553 12.6313C11.6022 12.8919 11.4922 13.1557 11.2741 13.3063C11.0603 13.4626 10.7759 13.4813 10.5428 13.3563L7.77468 11.9126C7.67843 11.8613 7.57155 11.8338 7.46218 11.8307H7.2928C7.23405 11.8394 7.17655 11.8582 7.12405 11.8869L4.3553 13.3376C4.21843 13.4063 4.06343 13.4307 3.91155 13.4063C3.54155 13.3363 3.29468 12.9838 3.3553 12.6119L3.91155 9.53694C3.94843 9.31256 3.87405 9.08443 3.71218 8.92506L1.4553 6.73756C1.26655 6.55444 1.20093 6.27944 1.28718 6.03131C1.37093 5.78381 1.58468 5.60319 1.8428 5.56256L4.94905 5.11194C5.1853 5.08756 5.3928 4.94381 5.49905 4.73131L6.8678 1.92506C6.9003 1.86256 6.94218 1.80506 6.9928 1.75631L7.04905 1.71256C7.07843 1.68006 7.11218 1.65319 7.14968 1.63131L7.2178 1.60631L7.32405 1.56256H7.58718C7.82218 1.58694 8.02905 1.72756 8.13718 1.93756L9.52405 4.73131C9.62405 4.93569 9.81843 5.07756 10.0428 5.11194L13.1491 5.56256C13.4116 5.60006 13.6309 5.78131 13.7178 6.03131C13.7997 6.28194 13.7291 6.55694 13.5366 6.73756L11.1991 8.95006Z" fill="#FFAC0C"/>
<path d="M29.1991 8.95006C29.0372 9.10694 28.9628 9.33381 28.9997 9.55631L29.5553 12.6313C29.6022 12.8919 29.4922 13.1557 29.2741 13.3063C29.0603 13.4626 28.7759 13.4813 28.5428 13.3563L25.7747 11.9126C25.6784 11.8613 25.5716 11.8338 25.4622 11.8307H25.2928C25.2341 11.8394 25.1766 11.8582 25.1241 11.8869L22.3553 13.3376C22.2184 13.4063 22.0634 13.4307 21.9116 13.4063C21.5416 13.3363 21.2947 12.9838 21.3553 12.6119L21.9116 9.53694C21.9484 9.31256 21.8741 9.08444 21.7122 8.92506L19.4553 6.73756C19.2666 6.55444 19.2009 6.27944 19.2872 6.03131C19.3709 5.78381 19.5847 5.60319 19.8428 5.56256L22.9491 5.11194C23.1853 5.08756 23.3928 4.94381 23.4991 4.73131L24.8678 1.92506C24.9003 1.86256 24.9422 1.80506 24.9928 1.75631L25.0491 1.71256C25.0784 1.68006 25.1122 1.65319 25.1497 1.63131L25.2178 1.60631L25.3241 1.56256H25.5872C25.8222 1.58694 26.0291 1.72756 26.1372 1.93756L27.5241 4.73131C27.6241 4.93569 27.8184 5.07756 28.0428 5.11194L31.1491 5.56256C31.4116 5.60006 31.6309 5.78131 31.7178 6.03131C31.7997 6.28194 31.7291 6.55694 31.5366 6.73756L29.1991 8.95006Z" fill="#FFAC0C"/>
<path d="M47.1991 8.95006C47.0372 9.10694 46.9628 9.33381 46.9997 9.55631L47.5553 12.6313C47.6022 12.8919 47.4922 13.1557 47.2741 13.3063C47.0603 13.4626 46.7759 13.4813 46.5428 13.3563L43.7747 11.9126C43.6784 11.8613 43.5716 11.8338 43.4622 11.8307H43.2928C43.2341 11.8394 43.1766 11.8582 43.1241 11.8869L40.3553 13.3376C40.2184 13.4063 40.0634 13.4307 39.9116 13.4063C39.5416 13.3363 39.2947 12.9838 39.3553 12.6119L39.9116 9.53694C39.9484 9.31256 39.8741 9.08443 39.7122 8.92506L37.4553 6.73756C37.2666 6.55444 37.2009 6.27944 37.2872 6.03131C37.3709 5.78381 37.5847 5.60319 37.8428 5.56256L40.9491 5.11194C41.1853 5.08756 41.3928 4.94381 41.4991 4.73131L42.8678 1.92506C42.9003 1.86256 42.9422 1.80506 42.9928 1.75631L43.0491 1.71256C43.0784 1.68006 43.1122 1.65319 43.1497 1.63131L43.2178 1.60631L43.3241 1.56256H43.5872C43.8222 1.58694 44.0291 1.72756 44.1372 1.93756L45.5241 4.73131C45.6241 4.93569 45.8184 5.07756 46.0428 5.11194L49.1491 5.56256C49.4116 5.60006 49.6309 5.78131 49.7178 6.03131C49.7997 6.28194 49.7291 6.55694 49.5366 6.73756L47.1991 8.95006Z" fill="#FFAC0C"/>
<path d="M65.1991 8.95006C65.0372 9.10694 64.9628 9.33381 64.9997 9.55631L65.5553 12.6313C65.6022 12.8919 65.4922 13.1557 65.2741 13.3063C65.0603 13.4626 64.7759 13.4813 64.5428 13.3563L61.7747 11.9126C61.6784 11.8613 61.5716 11.8338 61.4622 11.8307H61.2928C61.2341 11.8394 61.1766 11.8582 61.1241 11.8869L58.3553 13.3376C58.2184 13.4063 58.0634 13.4307 57.9116 13.4063C57.5416 13.3363 57.2947 12.9838 57.3553 12.6119L57.9116 9.53694C57.9484 9.31256 57.8741 9.08443 57.7122 8.92506L55.4553 6.73756C55.2666 6.55444 55.2009 6.27944 55.2872 6.03131C55.3709 5.78381 55.5847 5.60319 55.8428 5.56256L58.9491 5.11194C59.1853 5.08756 59.3928 4.94381 59.4991 4.73131L60.8678 1.92506C60.9003 1.86256 60.9422 1.80506 60.9928 1.75631L61.0491 1.71256C61.0784 1.68006 61.1122 1.65319 61.1497 1.63131L61.2178 1.60631L61.3241 1.56256H61.5872C61.8222 1.58694 62.0291 1.72756 62.1372 1.93756L63.5241 4.73131C63.6241 4.93569 63.8184 5.07756 64.0428 5.11194L67.1491 5.56256C67.4116 5.60006 67.6309 5.78131 67.7178 6.03131C67.7997 6.28194 67.7291 6.55694 67.5366 6.73756L65.1991 8.95006Z" fill="#FFAC0C"/>
<path d="M83.1991 8.95006C83.0372 9.10694 82.9628 9.33381 82.9997 9.55631L83.5553 12.6313C83.6022 12.8919 83.4922 13.1557 83.2741 13.3063C83.0603 13.4626 82.7759 13.4813 82.5428 13.3563L79.7747 11.9126C79.6784 11.8613 79.5716 11.8338 79.4622 11.8307H79.2928C79.2341 11.8394 79.1766 11.8582 79.1241 11.8869L76.3553 13.3376C76.2184 13.4063 76.0634 13.4307 75.9116 13.4063C75.5416 13.3363 75.2947 12.9838 75.3553 12.6119L75.9116 9.53694C75.9484 9.31256 75.8741 9.08443 75.7122 8.92506L73.4553 6.73756C73.2666 6.55444 73.2009 6.27944 73.2872 6.03131C73.3709 5.78381 73.5847 5.60319 73.8428 5.56256L76.9491 5.11194C77.1853 5.08756 77.3928 4.94381 77.4991 4.73131L78.8678 1.92506C78.9003 1.86256 78.9422 1.80506 78.9928 1.75631L79.0491 1.71256C79.0784 1.68006 79.1122 1.65319 79.1497 1.63131L79.2178 1.60631L79.3241 1.56256H79.5872C79.8222 1.58694 80.0291 1.72756 80.1372 1.93756L81.5241 4.73131C81.6241 4.93569 81.8184 5.07756 82.0428 5.11194L85.1491 5.56256C85.4116 5.60006 85.6309 5.78131 85.7178 6.03131C85.7997 6.28194 85.7291 6.55694 85.5366 6.73756L83.1991 8.95006Z" fill="#C4C4C4"/>
</svg>
