<svg width="20" height="20" viewBox="0 0 20 20" fill="none" xmlns="http://www.w3.org/2000/svg">
<path d="M5.34984 14.7749C3.4915 13.5582 2.2915 11.7249 2.2915 10.1165C2.2915 7.3832 5.7415 4.0332 9.99984 4.0332C11.7415 4.0332 13.3582 4.59154 14.6582 5.4582" stroke="#727272" stroke-width="1.5" stroke-linecap="round" stroke-linejoin="round"/>
<path d="M16.5414 7.17517C17.2839 8.11684 17.7164 9.1585 17.7164 10.1168C17.7164 12.8502 14.2581 16.2002 9.99977 16.2002C9.24144 16.2002 8.50061 16.0918 7.80811 15.9002" stroke="#727272" stroke-width="1.5" stroke-linecap="round" stroke-linejoin="round"/>
<path d="M8.13804 11.9725C7.6422 11.4817 7.3647 10.8125 7.3672 10.115C7.36387 8.66086 8.54054 7.47919 9.99554 7.47669C10.6955 7.47503 11.3672 7.75253 11.8622 8.24753" stroke="#727272" stroke-width="1.5" stroke-linecap="round" stroke-linejoin="round"/>
<path d="M12.5912 10.5826C12.3962 11.6593 11.5537 12.5035 10.4771 12.701" stroke="#727272" stroke-width="1.5" stroke-linecap="round" stroke-linejoin="round"/>
<path d="M16.5762 3.54163L3.43115 16.6866" stroke="#727272" stroke-width="1.5" stroke-linecap="round" stroke-linejoin="round"/>
</svg>
